<?xml version="1.0" encoding="UTF-8"?>
<svg width="14px" height="14px" viewBox="0 0 14 14" version="1.1" xmlns="http://www.w3.org/2000/svg" xmlns:xlink="http://www.w3.org/1999/xlink">
    <!-- Generator: Sketch 57.1 (83088) - https://sketch.com -->
    <title>Combined Shape Copy 6</title>
    <desc>Created with Sketch.</desc>
    <g id="Symbols" stroke="none" stroke-width="1" fill="none" fill-rule="evenodd">
        <g id="Tag-selected" transform="translate(-185.000000, -13.000000)" fill="#FFFFFF">
            <g id="Tag-vide`-Copy-3">
                <path d="M192,12 C193.493502,12 194.704225,13.2107229 194.704225,14.7042254 L194.704,17.295 L197.295775,17.2957746 C198.789277,17.2957746 200,18.5064976 200,20 C200,21.4935024 198.789277,22.7042254 197.295775,22.7042254 L194.704,22.704 L194.704225,25.2957746 C194.704225,26.7892771 193.493502,28 192,28 C190.506498,28 189.295775,26.7892771 189.295775,25.2957746 L189.295,22.704 L186.704225,22.7042254 C185.210723,22.7042254 184,21.4935024 184,20 C184,18.5064976 185.210723,17.2957746 186.704225,17.2957746 L189.295,17.295 L189.295775,14.7042254 C189.295775,13.2107229 190.506498,12 192,12 Z" id="Combined-Shape-Copy-6" transform="translate(192.000000, 20.000000) rotate(-45.000000) translate(-192.000000, -20.000000) "></path>
            </g>
        </g>
    </g>
</svg>