<?xml version="1.0" encoding="UTF-8"?>
<svg width="16px" height="16px" viewBox="0 0 16 16" version="1.1" xmlns="http://www.w3.org/2000/svg" xmlns:xlink="http://www.w3.org/1999/xlink">
    <!-- Generator: Sketch 57.1 (83088) - https://sketch.com -->
    <title>Combined Shape Copy 6</title>
    <desc>Created with Sketch.</desc>
    <g id="Symbols" stroke="none" stroke-width="1" fill="none" fill-rule="evenodd">
        <g id="Tag-vide`" transform="translate(-128.000000, -12.000000)" fill="#979797">
            <path d="M136,12 C137.493502,12 138.704225,13.2107229 138.704225,14.7042254 L138.704,17.295 L141.295775,17.2957746 C142.789277,17.2957746 144,18.5064976 144,20 C144,21.4935024 142.789277,22.7042254 141.295775,22.7042254 L138.704,22.704 L138.704225,25.2957746 C138.704225,26.7892771 137.493502,28 136,28 C134.506498,28 133.295775,26.7892771 133.295775,25.2957746 L133.295,22.704 L130.704225,22.7042254 C129.210723,22.7042254 128,21.4935024 128,20 C128,18.5064976 129.210723,17.2957746 130.704225,17.2957746 L133.295,17.295 L133.295775,14.7042254 C133.295775,13.2107229 134.506498,12 136,12 Z" id="Combined-Shape-Copy-6"></path>
        </g>
    </g>
</svg>